HIERARCHY
ROOT Hips
{
	OFFSET 0.000000 71.427986 0.000000
	CHANNELS 6 Xposition Yposition Zposition Xrotation Yrotation Zrotation
	JOINT Pelvis
	{
		OFFSET 0.000000 0.000000 0.000000
		CHANNELS 3 Xrotation Yrotation Zrotation
		JOINT LeftUpLeg
		{
			OFFSET 6.797100 -2.508499 -1.318700
			CHANNELS 3 Xrotation Yrotation Zrotation
			JOINT LeftLeg
			{
				OFFSET 0.069008 -29.241863 0.690200
				CHANNELS 3 Xrotation Yrotation Zrotation
				JOINT LeftFoot
				{
					OFFSET -0.069008 -29.568123 -0.266800
					CHANNELS 3 Xrotation Yrotation Zrotation
					JOINT LeftToeBase
					{
						OFFSET 3.145500 -8.631000 16.059900
						CHANNELS 3 Xrotation Yrotation Zrotation
						End Site
						{
							OFFSET 0.000000 18.501587 0.000000
						}
					}
				}
			}
			JOINT Left_ShortSleeve
			{
				OFFSET 0.265923 -10.480953 1.153800
				CHANNELS 3 Xrotation Yrotation Zrotation
				End Site
				{
					OFFSET 1.725763 19.823879 0.000000
				}
			}
		}
		JOINT RightUpLeg
		{
			OFFSET -6.797100 -2.508499 -1.318700
			CHANNELS 3 Xrotation Yrotation Zrotation
			JOINT RightLeg
			{
				OFFSET -0.082453 -29.241932 0.688000
				CHANNELS 3 Xrotation Yrotation Zrotation
				JOINT RightFoot
				{
					OFFSET 0.082453 -29.568058 -0.264600
					CHANNELS 3 Xrotation Yrotation Zrotation
					JOINT RightToeBase
					{
						OFFSET -3.115300 -8.682800 16.113400
						CHANNELS 3 Xrotation Yrotation Zrotation
						End Site
						{
							OFFSET 0.000000 18.567114 0.000000
						}
					}
				}
			}
			JOINT Right_ShortSleeve
			{
				OFFSET -0.265923 -10.480953 1.153800
				CHANNELS 3 Xrotation Yrotation Zrotation
				End Site
				{
					OFFSET -1.725766 19.823910 0.000000
				}
			}
		}
	}
	JOINT Spine
	{
		OFFSET 0.000000 13.368103 0.470500
		CHANNELS 3 Xrotation Yrotation Zrotation
		JOINT Spine1
		{
			OFFSET 0.147000 13.837402 0.538800
			CHANNELS 3 Xrotation Yrotation Zrotation
			JOINT Spine2
			{
				OFFSET 0.168000 16.242897 -1.435500
				CHANNELS 3 Xrotation Yrotation Zrotation
				JOINT Neck
				{
					OFFSET 0.217200 18.631500 -1.679100
					CHANNELS 3 Xrotation Yrotation Zrotation
					JOINT Head
					{
						OFFSET 0.000000 6.599396 1.385900
						CHANNELS 3 Xrotation Yrotation Zrotation
						JOINT Hat
						{
							OFFSET -0.532200 27.220596 -10.096100
							CHANNELS 3 Xrotation Yrotation Zrotation
							End Site
							{
								OFFSET 0.000000 22.029861 0.000000
							}
						}
						JOINT HairD
						{
							OFFSET -10.777400 17.437393 -1.325900
							CHANNELS 3 Xrotation Yrotation Zrotation
							JOINT HairD1
							{
								OFFSET -3.290299 -11.051193 1.062200
								CHANNELS 3 Xrotation Yrotation Zrotation
								End Site
								{
									OFFSET 0.000000 11.579437 0.000000
								}
							}
						}
						JOINT HairB
						{
							OFFSET -10.777400 17.437393 1.467900
							CHANNELS 3 Xrotation Yrotation Zrotation
							JOINT HairB1
							{
								OFFSET -1.561200 -12.956299 3.590200
								CHANNELS 3 Xrotation Yrotation Zrotation
								End Site
								{
									OFFSET 0.000000 13.534866 0.000000
								}
							}
						}
						JOINT HairA
						{
							OFFSET 9.713100 17.437393 1.467900
							CHANNELS 3 Xrotation Yrotation Zrotation
							JOINT HairA1
							{
								OFFSET 1.561200 -12.956299 3.590200
								CHANNELS 3 Xrotation Yrotation Zrotation
								End Site
								{
									OFFSET 0.000000 13.534866 0.000000
								}
							}
						}
						JOINT HairC
						{
							OFFSET 9.713100 17.437393 -1.325900
							CHANNELS 3 Xrotation Yrotation Zrotation
							JOINT HairC1
							{
								OFFSET 3.290300 -11.051193 1.062200
								CHANNELS 3 Xrotation Yrotation Zrotation
								End Site
								{
									OFFSET 0.000000 11.579437 0.000000
								}
							}
						}
					}
				}
				JOINT LeftShoulder
				{
					OFFSET 5.101800 15.108002 -2.763700
					CHANNELS 3 Xrotation Yrotation Zrotation
					JOINT LeftArm
					{
						OFFSET 9.825497 2.506317 -1.597400
						CHANNELS 3 Xrotation Yrotation Zrotation
						JOINT LeftForeArm
						{
							OFFSET 21.966244 0.000000 0.000000
							CHANNELS 3 Xrotation Yrotation Zrotation
							JOINT LeftHand
							{
								OFFSET 33.879036 0.000000 0.000000
								CHANNELS 3 Xrotation Yrotation Zrotation
								JOINT LeftHandThumb1
								{
									OFFSET 6.715286 -2.359680 3.363841
									CHANNELS 3 Xrotation Yrotation Zrotation
									JOINT LeftHandThumb2
									{
										OFFSET 2.507072 -1.447464 1.447461
										CHANNELS 3 Xrotation Yrotation Zrotation
										JOINT LeftHandThumb3
										{
											OFFSET 2.898338 -1.673355 1.673357
											CHANNELS 3 Xrotation Yrotation Zrotation
											End Site
											{
												OFFSET -0.295959 3.727692 -0.131651
											}
										}
									}
								}
								JOINT LeftHandIndex1
								{
									OFFSET 14.190811 -0.254547 3.840278
									CHANNELS 3 Xrotation Yrotation Zrotation
									JOINT LeftHandIndex2
									{
										OFFSET 3.551727 0.000000 -0.000000
										CHANNELS 3 Xrotation Yrotation Zrotation
										JOINT LeftHandIndex3
										{
											OFFSET 2.894196 0.000000 0.000000
											CHANNELS 3 Xrotation Yrotation Zrotation
											End Site
											{
												OFFSET -1.000603 2.690872 0.366626
											}
										}
									}
								}
								JOINT LeftHandMiddle1
								{
									OFFSET 13.776489 0.000000 0.000000
									CHANNELS 3 Xrotation Yrotation Zrotation
									JOINT LeftHandMiddle2
									{
										OFFSET 3.438232 0.000000 0.000000
										CHANNELS 3 Xrotation Yrotation Zrotation
										JOINT LeftHandMiddle3
										{
											OFFSET 3.691551 0.000000 0.000000
											CHANNELS 3 Xrotation Yrotation Zrotation
											End Site
											{
												OFFSET -1.082298 3.499527 0.457670
											}
										}
									}
								}
								JOINT LeftHandRing1
								{
									OFFSET 13.966164 -0.268127 -3.067488
									CHANNELS 3 Xrotation Yrotation Zrotation
									JOINT LeftHandRing2
									{
										OFFSET 3.162567 0.000000 0.000000
										CHANNELS 3 Xrotation Yrotation Zrotation
										JOINT LeftHandRing3
										{
											OFFSET 3.324348 0.000000 0.000000
											CHANNELS 3 Xrotation Yrotation Zrotation
											End Site
											{
												OFFSET -0.861900 3.184998 0.405154
											}
										}
									}
								}
								JOINT LeftHandPinky1
								{
									OFFSET 13.131393 -0.168503 -5.746925
									CHANNELS 3 Xrotation Yrotation Zrotation
									JOINT LeftHandPinky2
									{
										OFFSET 2.849182 0.000000 0.000000
										CHANNELS 3 Xrotation Yrotation Zrotation
										JOINT LeftHandPinky3
										{
											OFFSET 2.805038 0.000000 0.000000
											CHANNELS 3 Xrotation Yrotation Zrotation
											End Site
											{
												OFFSET -0.882500 2.642609 0.325652
											}
										}
									}
								}
							}
							JOINT Left_Sleeve
							{
								OFFSET 6.592125 -0.646545 0.805568
								CHANNELS 3 Xrotation Yrotation Zrotation
								End Site
								{
									OFFSET -0.000179 20.275787 -0.000000
								}
							}
						}
					}
				}
				JOINT RightShoulder
				{
					OFFSET -5.731700 15.108002 -2.763700
					CHANNELS 3 Xrotation Yrotation Zrotation
					JOINT RightArm
					{
						OFFSET -9.825497 2.506317 -1.597400
						CHANNELS 3 Xrotation Yrotation Zrotation
						JOINT RightForeArm
						{
							OFFSET -21.966242 0.000000 0.000000
							CHANNELS 3 Xrotation Yrotation Zrotation
							JOINT RightHand
							{
								OFFSET -33.879032 0.000000 0.000000
								CHANNELS 3 Xrotation Yrotation Zrotation
								JOINT RightHandThumb1
								{
									OFFSET -6.715286 -2.359680 3.363841
									CHANNELS 3 Xrotation Yrotation Zrotation
									JOINT RightHandThumb2
									{
										OFFSET -2.507072 -1.447464 1.447461
										CHANNELS 3 Xrotation Yrotation Zrotation
										JOINT RightHandThumb3
										{
											OFFSET -2.898338 -1.673355 1.673357
											CHANNELS 3 Xrotation Yrotation Zrotation
											End Site
											{
												OFFSET 0.295959 3.727692 -0.131651
											}
										}
									}
								}
								JOINT RightHandIndex1
								{
									OFFSET -14.190811 -0.254547 3.840278
									CHANNELS 3 Xrotation Yrotation Zrotation
									JOINT RightHandIndex2
									{
										OFFSET -3.551727 0.000000 -0.000000
										CHANNELS 3 Xrotation Yrotation Zrotation
										JOINT RightHandIndex3
										{
											OFFSET -2.894196 0.000000 0.000000
											CHANNELS 3 Xrotation Yrotation Zrotation
											End Site
											{
												OFFSET 1.000603 2.690872 0.366626
											}
										}
									}
								}
								JOINT RightHandMiddle1
								{
									OFFSET -13.776489 0.000000 0.000000
									CHANNELS 3 Xrotation Yrotation Zrotation
									JOINT RightHandMiddle2
									{
										OFFSET -3.438232 0.000000 0.000000
										CHANNELS 3 Xrotation Yrotation Zrotation
										JOINT RightHandMiddle3
										{
											OFFSET -3.691551 0.000000 0.000000
											CHANNELS 3 Xrotation Yrotation Zrotation
											End Site
											{
												OFFSET 1.082298 3.499527 0.457670
											}
										}
									}
								}
								JOINT RightHandRing1
								{
									OFFSET -13.966164 -0.268127 -3.067488
									CHANNELS 3 Xrotation Yrotation Zrotation
									JOINT RightHandRing2
									{
										OFFSET -3.162567 0.000000 0.000000
										CHANNELS 3 Xrotation Yrotation Zrotation
										JOINT RightHandRing3
										{
											OFFSET -3.324348 0.000000 0.000000
											CHANNELS 3 Xrotation Yrotation Zrotation
											End Site
											{
												OFFSET 0.861900 3.184998 0.405154
											}
										}
									}
								}
								JOINT RightHandPinky1
								{
									OFFSET -13.131393 -0.168503 -5.746925
									CHANNELS 3 Xrotation Yrotation Zrotation
									JOINT RightHandPinky2
									{
										OFFSET -2.849182 0.000000 0.000000
										CHANNELS 3 Xrotation Yrotation Zrotation
										JOINT RightHandPinky3
										{
											OFFSET -2.805038 0.000000 0.000000
											CHANNELS 3 Xrotation Yrotation Zrotation
											End Site
											{
												OFFSET 0.882500 2.642609 0.325652
											}
										}
									}
								}
							}
							JOINT Right_Sleeve
							{
								OFFSET -6.592125 -0.646545 0.805568
								CHANNELS 3 Xrotation Yrotation Zrotation
								End Site
								{
									OFFSET 0.000179 20.275787 -0.000000
								}
							}
						}
					}
				}
				JOINT Bind_Right_JacketString
				{
					OFFSET -3.534800 11.969597 7.200700
					CHANNELS 3 Xrotation Yrotation Zrotation
					JOINT Bind_Right_JacketString1
					{
						OFFSET -0.319900 -6.102600 2.794100
						CHANNELS 3 Xrotation Yrotation Zrotation
						End Site
						{
							OFFSET 0.000000 6.719452 0.000000
						}
					}
				}
				JOINT Bind_Left_JacketString
				{
					OFFSET 2.904800 11.969597 7.200700
					CHANNELS 3 Xrotation Yrotation Zrotation
					JOINT Bind_Left_JacketString1
					{
						OFFSET 0.364800 -5.904503 3.186800
						CHANNELS 3 Xrotation Yrotation Zrotation
						End Site
						{
							OFFSET 0.000000 6.719513 0.000000
						}
					}
				}
				JOINT HairE
				{
					OFFSET 5.915200 17.612701 -11.592200
					CHANNELS 3 Xrotation Yrotation Zrotation
					JOINT HairE1
					{
						OFFSET 0.289200 -7.171898 -1.284500
						CHANNELS 3 Xrotation Yrotation Zrotation
						End Site
						{
							OFFSET 0.000000 7.291756 0.000000
						}
					}
				}
				JOINT HairF
				{
					OFFSET -0.864800 17.612701 -11.592200
					CHANNELS 3 Xrotation Yrotation Zrotation
					JOINT HairF1
					{
						OFFSET 0.000000 -14.087097 -2.127501
						CHANNELS 3 Xrotation Yrotation Zrotation
						End Site
						{
							OFFSET 0.000000 14.246841 0.000000
						}
					}
				}
				JOINT HairG
				{
					OFFSET -8.087700 17.612701 -11.592200
					CHANNELS 3 Xrotation Yrotation Zrotation
					JOINT HairG1
					{
						OFFSET -0.293600 -6.081398 -0.910100
						CHANNELS 3 Xrotation Yrotation Zrotation
						End Site
						{
							OFFSET 0.000000 6.156120 0.000000
						}
					}
				}
			}
		}
	}
	JOINT Pouch
	{
		OFFSET 0.000000 4.394501 10.847300
		CHANNELS 3 Xrotation Yrotation Zrotation
		End Site
		{
			OFFSET 0.000000 21.880577 0.000000
		}
	}
	JOINT Bag
	{
		OFFSET -13.229000 4.813004 -0.593300
		CHANNELS 3 Xrotation Yrotation Zrotation
		End Site
		{
			OFFSET 0.000000 21.880577 0.000000
		}
	}
	JOINT OccupyGuyFacialAnim_Joint
	{
		OFFSET 1.000000 -70.206398 -1.655000
		CHANNELS 3 Xrotation Yrotation Zrotation
		End Site
		{
			OFFSET 0.000000 21.880577 0.000000
		}
	}
}
MOTION
Frames: 4
Frame Time: 0.033333
-0.496214 60.469704 0.365127 15.460060 -53.306246 11.628006 -0.000000 0.000000 -0.000000 -65.819555 26.153170 42.771673 46.265048 -14.931808 4.318102 0.664198 0.551988 -9.994279 -0.000000 0.000000 0.000000 -0.000002 -0.000001 -0.000000 -33.703842 -20.428727 -35.288531 42.297589 -0.659059 -5.458408 -13.837206 -5.333414 30.444636 -0.000000 -0.000000 -0.000000 -0.000001 0.000000 -0.000003 7.406298 3.464103 -3.063065 1.209172 1.420677 2.325057 0.209263 1.298857 1.049727 -1.852108 9.789331 -1.570085 -3.710347 23.673110 -4.987623 0.000001 -0.000000 0.000000 0.000001 -0.000000 0.000000 0.000001 -0.000000 0.000000 0.000001 -0.000000 0.000000 0.000001 -0.000000 0.000000 0.000001 -0.000000 0.000000 0.000001 -0.000000 0.000000 0.000001 -0.000000 0.000000 0.000001 -0.000000 0.000000 -2.416909 -9.914490 -4.105218 -4.669000 -14.995300 -46.826954 -96.668084 -58.172762 -94.771668 0.027014 -0.377055 -3.261895 4.766478 -0.870665 -14.442461 15.725991 12.681043 8.825696 0.000002 0.000001 0.000000 -3.610968 -7.817595 -81.262681 0.006840 -4.392610 -67.458930 -0.000000 0.000001 0.000005 -5.483681 2.419546 -86.651010 -0.064734 -4.896422 -76.605216 0.000002 -0.000000 0.000000 -4.480730 3.915259 -90.412239 -1.097514 -0.666008 -62.310655 0.000000 -0.000001 -0.000003 -8.868655 8.263646 -85.753865 -0.049196 -0.062382 -74.105626 -0.000001 0.000003 -0.000002 -0.000000 0.000000 -0.000001 -7.387813 -19.317435 2.804087 3.089231 2.300606 51.802839 -16.261613 73.875374 16.777456 -2.716608 27.655323 10.524476 24.918354 -21.323381 30.343047 9.041912 8.262103 -18.001800 -0.000000 0.000002 0.000003 -0.070691 -3.035216 61.424212 0.006453 4.395157 66.609173 -0.000003 0.000001 -0.000001 -1.235395 -0.119481 68.274277 -0.077282 4.902861 84.501878 0.000001 0.000000 -0.000001 0.883164 -4.613427 79.192949 -0.717774 1.136474 73.255753 0.000002 -0.000001 -0.000000 -3.944537 0.099983 86.764781 -0.029784 0.060121 54.415151 -0.000001 0.000002 -0.000001 0.000001 -0.000001 -0.000002 0.000001 0.000000 -0.000001 0.000001 -0.000002 -0.000000 0.000001 0.000000 -0.000001 0.000001 0.000000 -0.000001 0.000001 0.000000 -0.000001 0.000001 -0.000002 0.000000 0.000001 0.000000 -0.000001 0.000001 0.000000 -0.000001 0.000001 0.000000 -0.000001 0.000001 -0.000002 0.000000 -0.000000 0.000000 -0.000000 -0.000000 0.000000 -0.000000 -0.000000 0.000000 -0.000000 
-0.142113 60.323250 0.173890 15.301499 -54.092387 11.353574 -0.000000 0.000002 -0.000001 -65.806974 25.441331 42.889927 46.843367 -13.973274 4.430415 0.592141 0.572697 -10.165934 0.000000 0.000000 0.000000 0.000003 0.000000 -0.000000 -35.869271 -21.210196 -35.590770 43.707262 1.924912 -6.863004 -13.467945 -5.943596 29.844846 0.000000 -0.000000 -0.000000 -0.000000 0.000002 -0.000002 7.275520 3.218388 -2.887453 1.827561 1.273388 2.125524 0.887203 1.159019 0.929976 -0.866925 10.592564 -2.042926 -4.839092 22.696054 -4.849104 0.000001 0.000001 0.000000 0.000001 0.000001 0.000000 0.000001 0.000001 0.000000 0.000001 0.000001 -0.000000 -0.000000 -0.000001 0.000000 0.000001 0.000001 -0.000000 -0.000000 -0.000001 0.000000 0.000001 0.000001 0.000000 0.000001 0.000001 0.000000 -2.310686 -9.739608 -5.564505 -5.236732 -15.479690 -46.127949 -86.422397 -62.693289 -82.767611 -0.668369 -3.091746 -1.417861 4.492763 -1.046368 -14.275025 15.738183 12.717980 8.834357 0.000000 -0.000001 0.000001 -3.545771 -7.818396 -80.634632 0.006756 -4.392631 -67.022515 0.000001 0.000000 0.000002 -5.482799 2.419607 -86.056367 -0.064317 -4.896284 -76.246822 0.000001 0.000002 0.000001 -4.480239 3.914148 -89.902085 -1.099834 -0.669800 -62.077588 -0.000000 -0.000001 -0.000000 -8.868160 8.263692 -85.324410 -0.048881 -0.062311 -73.835274 -0.000000 -0.000001 0.000003 -0.000000 -0.000002 -0.000002 -7.232497 -18.940864 2.978773 2.952402 2.056188 51.626886 -13.851214 71.392272 14.250566 -2.119765 27.004101 10.541828 24.918352 -21.323383 30.343040 9.041919 8.262098 -18.001800 0.000001 -0.000001 0.000001 -0.070694 -3.035216 61.424219 0.006454 4.395152 66.609180 0.000002 0.000000 -0.000005 -1.235387 -0.119482 68.274277 -0.077278 4.902854 84.501878 -0.000001 0.000000 -0.000002 0.883169 -4.613427 79.192949 -0.717774 1.136479 73.255753 0.000000 -0.000000 -0.000000 -3.944540 0.099980 86.764781 -0.029784 0.060124 54.415144 -0.000000 0.000001 0.000001 0.000003 0.000001 -0.000002 0.000001 0.000000 -0.000000 0.000001 0.000001 0.000000 0.000001 0.000000 0.000001 0.000001 0.000000 0.000001 0.000001 0.000000 -0.000000 0.000001 0.000001 0.000001 0.000001 0.000000 0.000001 0.000001 0.000000 0.000001 0.000001 0.000000 -0.000000 0.000001 0.000001 0.000001 -0.000000 0.000002 -0.000001 -0.000000 0.000002 -0.000001 -0.000000 0.000002 -0.000001 
0.401432 59.863144 -0.203459 14.973957 -54.722813 11.050705 0.000000 -0.000000 -0.000000 -65.844745 23.834635 42.400284 48.261277 -12.316078 4.654702 0.436809 0.617697 -10.533815 0.000000 -0.000002 0.000000 0.000000 -0.000000 -0.000000 -40.966894 -23.147894 -36.579437 47.617203 4.469439 -10.815988 -13.455161 -5.803342 29.233671 0.000000 -0.000000 0.000000 -0.000001 0.000001 -0.000002 6.928996 2.572484 -2.408632 3.368545 0.878028 1.676727 2.581793 0.782918 0.684962 1.754804 12.389046 -3.318406 -7.350479 20.320827 -4.472868 0.000000 -0.000002 -0.000000 0.000000 -0.000002 -0.000000 0.000000 -0.000002 -0.000000 0.000000 -0.000002 0.000000 0.000000 -0.000002 0.000000 0.000000 -0.000002 0.000000 0.000000 -0.000002 0.000000 0.000000 -0.000002 -0.000000 0.000000 -0.000002 -0.000000 -2.000143 -9.389609 -9.240816 -6.860266 -16.923563 -44.256327 -47.184948 -65.458914 -41.296113 -1.050217 -9.692316 2.904666 3.713551 -1.545625 -13.806367 15.774578 12.833176 8.856653 0.000002 0.000002 0.000001 -3.360527 -7.812983 -78.850060 0.006448 -4.392745 -65.782419 0.000001 0.000000 0.000002 -5.480262 2.419818 -84.366654 -0.063175 -4.895926 -75.228448 -0.000001 0.000000 0.000001 -4.478578 3.914147 -88.451640 -1.095631 -0.674814 -61.414930 -0.000001 -0.000000 -0.000002 -8.866766 8.263842 -84.104040 -0.048061 -0.062076 -73.066973 -0.000001 -0.000001 0.000003 -0.000000 -0.000003 -0.000004 -6.816440 -17.903649 3.444486 2.583510 1.380554 51.134515 -9.873161 64.803004 9.988721 -0.505934 25.258666 10.665100 24.918355 -21.323384 30.343044 9.041914 8.262105 -18.001802 -0.000001 0.000000 -0.000002 -0.070692 -3.035219 61.424212 0.006452 4.395153 66.609180 -0.000003 -0.000002 0.000002 -1.235396 -0.119481 68.274277 -0.077280 4.902859 84.501878 -0.000002 0.000001 -0.000004 0.883165 -4.613430 79.192943 -0.717775 1.136474 73.255746 0.000004 -0.000000 0.000001 -3.944542 0.099983 86.764781 -0.029783 0.060122 54.415147 -0.000002 0.000001 0.000001 -0.000002 -0.000000 0.000000 -0.000000 -0.000001 -0.000001 -0.000000 0.000001 -0.000000 -0.000000 -0.000001 -0.000000 -0.000000 -0.000001 -0.000000 -0.000000 -0.000001 -0.000001 -0.000000 0.000001 -0.000000 -0.000000 -0.000001 -0.000000 -0.000000 -0.000001 -0.000000 -0.000000 -0.000001 -0.000001 -0.000000 0.000001 -0.000000 0.000000 -0.000000 -0.000000 0.000000 -0.000000 -0.000000 0.000000 -0.000000 -0.000000 
1.377293 58.934464 -0.693471 14.303879 -55.765947 10.711553 -0.000000 0.000002 -0.000000 -66.109271 21.265377 41.451052 51.266358 -9.543615 5.065057 -0.137295 0.725272 -11.096212 0.000000 -0.000000 0.000000 -0.000004 0.000000 -0.000000 -48.838055 -23.888913 -38.580119 54.804376 6.940180 -16.332867 -11.829062 -5.391407 29.835626 -0.000000 -0.000000 -0.000000 0.000002 0.000000 -0.000002 6.439687 1.676339 -1.723047 5.361587 0.304591 1.203249 4.785681 0.235621 0.486051 5.488845 14.255319 -5.180376 -9.928136 17.380680 -3.915002 -0.000000 0.000000 0.000000 -0.000000 0.000000 0.000000 -0.000000 0.000000 0.000001 -0.000000 0.000000 -0.000000 -0.000001 -0.000000 -0.000000 -0.000000 0.000000 -0.000000 -0.000001 -0.000000 -0.000000 -0.000000 0.000000 0.000000 -0.000000 0.000000 0.000000 -1.524296 -9.135481 -14.082291 -10.172626 -20.375943 -42.725996 -12.018742 -50.967401 -7.026813 0.827516 -16.463853 7.953764 2.490097 -2.326358 -13.094431 15.823431 13.016429 8.888999 -0.000000 -0.000004 -0.000002 -3.071866 -7.781746 -76.058726 0.005960 -4.392882 -63.842359 0.000001 0.000001 -0.000000 -5.476365 2.420295 -81.723118 -0.061373 -4.895267 -73.635259 -0.000001 -0.000000 0.000001 -4.475993 3.914270 -86.182494 -1.093820 -0.673810 -60.378251 -0.000002 0.000001 -0.000001 -8.864572 8.264136 -82.194858 -0.046759 -0.061727 -71.864983 -0.000003 -0.000001 0.000003 0.000001 -0.000001 0.000001 -6.220912 -16.342005 4.104701 2.043693 0.361564 50.387115 -6.964938 55.499344 6.770531 1.868894 22.749396 11.040223 24.918350 -21.323381 30.343044 9.041914 8.262104 -18.001795 0.000000 0.000000 -0.000000 -0.070692 -3.035219 61.424212 0.006455 4.395161 66.609180 -0.000002 -0.000001 0.000002 -1.235393 -0.119482 68.274277 -0.077280 4.902859 84.501878 -0.000004 -0.000000 0.000001 0.883167 -4.613428 79.192943 -0.717773 1.136472 73.255753 -0.000000 -0.000001 -0.000002 -3.944542 0.099982 86.764781 -0.029783 0.060122 54.415147 -0.000001 0.000002 0.000001 0.000003 -0.000001 -0.000000 0.000001 0.000000 0.000001 0.000001 -0.000002 0.000000 0.000001 0.000000 0.000001 0.000001 0.000000 0.000001 0.000001 0.000000 0.000001 0.000001 -0.000002 0.000001 0.000001 0.000000 0.000001 0.000001 0.000000 0.000001 0.000001 0.000000 0.000001 0.000001 -0.000002 0.000001 -0.000000 0.000002 -0.000000 -0.000000 0.000002 -0.000000 -0.000000 0.000002 -0.000000 
